# Blender v2.80 (sub 75) OBJ File: ''
# www.blender.org
mtllib untitled.mtl
o BezierCurve_BezierCurve.001
v -0.132834 0.000001 -0.174178
v -0.077957 0.000001 -0.186193
v -0.024909 0.000001 -0.187471
v 0.024953 0.000001 -0.178944
v 0.070274 0.000001 -0.161543
v 0.109696 0.000001 -0.136197
v 0.141865 0.000001 -0.103840
v 0.165424 0.000001 -0.065401
v 0.179016 0.000001 -0.021811
v 0.181286 0.000001 0.025997
v 0.170877 0.000001 0.077094
v 0.146434 0.000001 0.130548
v 0.106599 0.000001 0.185428
v 0.091545 0.000001 0.198031
v 0.066326 0.000001 0.213082
v 0.032989 0.000001 0.228552
v -0.006416 0.000001 0.242411
v -0.049841 0.000001 0.252630
v -0.095236 0.000001 0.257177
v -0.140553 0.000001 0.254023
v -0.183742 0.000001 0.241138
v -0.222755 0.000001 0.216492
v -0.255544 0.000001 0.178055
v -0.280058 0.000001 0.123796
v -0.294249 0.000001 0.051687
v -0.296336 0.000001 0.043112
v -0.300290 0.000001 0.031102
v -0.304702 0.000001 0.016127
v -0.308166 0.000001 -0.001340
v -0.309274 0.000001 -0.020827
v -0.306619 0.000001 -0.041863
v -0.298793 0.000001 -0.063976
v -0.284388 0.000001 -0.086693
v -0.261997 0.000001 -0.109544
v -0.230213 0.000001 -0.132057
v -0.187628 0.000001 -0.153758
vn 0.0000 1.0000 -0.0000
usemtl None
s off
f 1//1 36//1 35//1 34//1 33//1 32//1 31//1 30//1 29//1 28//1 27//1 26//1 25//1 24//1 23//1 22//1 21//1 20//1 19//1 18//1 17//1 16//1 15//1 14//1 13//1 12//1 11//1 10//1 9//1 8//1 7//1 6//1 5//1 4//1 3//1 2//1
